<?xml version="1.0" encoding="utf-8"?>
<!-- Generator: Adobe Illustrator 23.0.3, SVG Export Plug-In . SVG Version: 6.00 Build 0)  -->
<svg version="1.1" id="圖層_1" xmlns="http://www.w3.org/2000/svg" xmlns:xlink="http://www.w3.org/1999/xlink" x="0px" y="0px"
	 viewBox="0 0 60 39" style="enable-background:new 0 0 60 39;" xml:space="preserve">
<style type="text/css">
	.st0{fill:#FFFFFF;}
</style>
<path class="st0" d="M35.1,24.36c-1.22,1.21-2.24,2.22-3.26,3.24c-0.84,0.85-1.67,2.02-3.01,1.46c-1.34-0.55-2.26-1.63-2.05-3.29
	c0.16-1.18,0.22-2.38,0.37-3.87c-1.09,1.08-2,2.01-2.95,2.89c-0.74,0.67-1.5,1.43-2.64,0.91c-1.14-0.53-1.97-1.33-2.11-2.66
	c-0.09-0.83-0.22-1.64-0.38-2.87c-1.42,2.22-2.66,4.12-3.83,6.06c-1.3,2.11-3.52,2.57-5.11,1.17c4.58-6.96,9.88-13.3,16.01-18.9
	c1.8-1.64,3.78-3.1,5.74-4.53c1.09-0.8,2.17-0.7,3.44,0.09c4.45,2.76,7.11,6.88,8.81,11.6c2.06,5.74,3.79,11.59,5.63,17.39
	c0.37,1.17-0.29,2.14-1.54,2.47c-1.58,0.42-3.23-0.58-3.62-2.17c-1.71-7.01-3.77-13.9-6.88-20.42c-0.96-2.01-2.44-3.77-3.74-5.59
	c-0.64-0.91-1.33-1.14-2.3-0.16c-2.23,2.28-4.58,4.46-6.9,6.67c-0.58,0.54-0.8,0.96-0.5,1.89c0.29,0.91-0.14,2.03-0.29,3.07
	c-0.07,0.47-0.2,0.95-0.38,1.77c0.71-0.56,1.17-0.87,1.54-1.23c1.35-1.38,3.12-1.86,4.88-2.36c1.13-0.32,1.72,0.08,1.58,1.38
	c-0.21,1.88-0.34,3.75-0.53,5.76c0.46-0.49,0.89-0.93,1.31-1.38c1.21-1.29,2.55-2.31,4.29-2.8c1.37-0.38,2.52,0.13,2.65,1.55
	c0.3,3.28,0.51,6.58,0.64,9.87c0.05,1.29-1.67,2.1-2.63,1.22c-0.72-0.66-1.34-1.64-1.56-2.59C35.42,28.23,35.34,26.41,35.1,24.36z"
	/>
</svg>
