<?xml version="1.0" encoding="utf-8"?>
<!-- Generator: Adobe Illustrator 23.0.3, SVG Export Plug-In . SVG Version: 6.00 Build 0)  -->
<svg version="1.1" id="圖層_1" xmlns="http://www.w3.org/2000/svg" xmlns:xlink="http://www.w3.org/1999/xlink" x="0px" y="0px"
	 viewBox="0 0 218 55" style="enable-background:new 0 0 218 55;" xml:space="preserve">
<style type="text/css">
	.st0{fill:#668E43;}
</style>
<path class="st0" d="M24.02,31.38c-0.93,0.92-1.71,1.69-2.48,2.47c-0.64,0.65-1.27,1.54-2.29,1.11c-1.02-0.42-1.72-1.24-1.56-2.51
	c0.12-0.9,0.17-1.81,0.28-2.95c-0.83,0.82-1.52,1.53-2.25,2.2c-0.56,0.51-1.14,1.09-2.01,0.69c-0.87-0.4-1.5-1.01-1.61-2.03
	c-0.07-0.63-0.17-1.25-0.29-2.19c-1.08,1.69-2.03,3.14-2.92,4.62C7.9,34.4,6.21,34.75,5,33.68c3.49-5.3,7.53-10.13,12.2-14.4
	c1.37-1.25,2.88-2.36,4.37-3.45c0.83-0.61,1.65-0.53,2.62,0.07c3.39,2.1,5.42,5.24,6.71,8.84c1.57,4.37,2.89,8.83,4.29,13.25
	c0.28,0.89-0.22,1.63-1.17,1.88c-1.2,0.32-2.46-0.44-2.76-1.65c-1.3-5.34-2.87-10.59-5.24-15.56c-0.73-1.53-1.86-2.87-2.85-4.26
	c-0.49-0.69-1.01-0.87-1.75-0.12c-1.7,1.74-3.49,3.4-5.26,5.08c-0.44,0.41-0.61,0.73-0.38,1.44c0.22,0.69-0.11,1.55-0.22,2.34
	c-0.05,0.36-0.15,0.72-0.29,1.35c0.54-0.43,0.89-0.66,1.17-0.94c1.03-1.05,2.38-1.42,3.72-1.8c0.86-0.24,1.31,0.06,1.2,1.05
	c-0.16,1.43-0.26,2.86-0.4,4.39c0.35-0.37,0.68-0.71,1-1.05c0.92-0.98,1.94-1.76,3.27-2.13c1.04-0.29,1.92,0.1,2.02,1.18
	c0.23,2.5,0.39,5.01,0.49,7.52c0.04,0.98-1.27,1.6-2,0.93c-0.55-0.5-1.02-1.25-1.19-1.97C24.26,34.33,24.2,32.94,24.02,31.38z"/>
<g>
	<path class="st0" d="M62.04,21.92c0.58,0.15,1.28,0.11,1.85-0.08c0.32-0.1,0.71-0.7,0.67-1.03c-0.03-0.29-0.6-0.69-0.96-0.73
		c-2.65-0.3-5.3-0.55-7.95-0.75c-1.16-0.09-2.34-0.01-3.63-0.01c0.08-0.82,0.13-1.49,0.21-2.16c0.24-1.96,0.57-3.92,0.7-5.89
		c0.04-0.57-0.35-1.6-0.72-1.69c-0.87-0.2-1.84,0.02-2.76,0.11c-0.06,0.01-0.1,0.33-0.13,0.51c-0.24,1.8-0.46,3.6-0.7,5.39
		c-0.16,1.22-0.34,2.44-0.51,3.68c-5.42,0.55-5.63,0.6-6.59,1.71c1.61,0.11,3,0.24,4.4,0.28c1.46,0.05,2.92,0.01,4.34,0.01
		c-0.96,2.11-1.97,4.04-2.71,6.06c-1.17,3.18-2.15,6.42-3.2,9.64c-0.1,0.3-0.17,0.83-0.03,0.94c0.65,0.47,1.36,1.06,2.11,1.16
		c0.78,0.11,1.29-0.6,1.55-1.42c0.89-2.79,1.81-5.58,2.77-8.34c0.13-0.39,0.53-0.91,0.87-0.96c2.29-0.31,4.59-0.62,6.9-0.72
		c2.4-0.1,2.52,0.13,2.14,2.57c-0.56,3.61-1.12,7.22-1.75,10.82c-0.05,0.3-0.63,0.71-0.99,0.73c-1.27,0.09-2.55,0.03-3.83,0.03
		c-0.03,0.15-0.06,0.29-0.09,0.44c0.59,0.97,1.56,1.34,2.69,1.41c1.13,0.08,2.28,0.03,3.4,0.18c1.17,0.16,1.99-0.39,2.14-1.58
		c0.18-1.4,0.39-2.79,0.62-4.17c0.48-2.89,1.12-5.75,1.43-8.66c0.23-2.12-1.06-3.51-3.18-3.7c-1.81-0.17-3.65-0.16-5.47-0.09
		c-1.2,0.04-2.39,0.31-3.72,0.5c0.74-1.66,1.43-3.21,2.2-4.93C56.72,21.09,59.39,21.25,62.04,21.92z"/>
	<path class="st0" d="M85.09,19.42c-2.62,0.15-5.24,0.34-7.86,0.47c-1.3,0.06-2.61,0.01-4.03,0.01c0.6-1.26,1.15-2.34,1.63-3.46
		c0.11-0.26,0.1-0.69-0.05-0.92c-0.1-0.16-0.6-0.23-0.8-0.12c-1.2,0.62-2.49,1.07-3.22,2.39c-1.19,2.17-2.54,4.25-3.75,6.4
		c-0.17,0.31-0.1,0.97,0.13,1.26c0.9,1.13,2,1.04,2.78-0.18c0.59-0.93,1.12-1.91,1.71-2.83c0.16-0.25,0.48-0.56,0.74-0.57
		c1.54-0.05,3.09-0.03,4.75-0.03c-0.6,1.65-1.13,3.13-1.67,4.62c-1.52-0.74-2.03-0.68-4.01,0.43c0.81,0.93,1.67,1.82,2.4,2.81
		c0.26,0.35,0.38,1.01,0.23,1.41c-1.1,2.88-2.26,5.74-3.45,8.58c-0.51,1.22-0.34,1.74,0.99,2.38c1.04,0.49,1.6-0.15,2-0.93
		c0.46-0.88,0.8-1.81,1.19-2.72c0.7-1.63,1.4-3.26,2.12-4.94c1.59,1.68,3.04,3.28,4.56,4.8c0.58,0.58,1.26,1.17,2.01,1.44
		c0.44,0.16,1.22-0.15,1.64-0.5c0.5-0.41,0.49-1.05-0.02-1.61c-2.13-2.33-4.22-4.7-6.37-7.01c-0.45-0.48-0.57-0.88-0.37-1.51
		c0.68-2.18,1.26-4.39,1.95-6.57c0.09-0.29,0.59-0.59,0.94-0.65c1.34-0.23,2.72-0.29,4.05-0.6c0.39-0.09,0.87-0.73,0.92-1.16
		C86.33,19.37,85.63,19.39,85.09,19.42z"/>
</g>
<g>
	<path class="st0" d="M114.6,19.03c0.32,0.17,0.48,0.63,0.8,1.09c0.28,0.03,0.82,0.16,1.33,0.09c0.38-0.05,0.84-0.3,1.02-0.61
		c0.1-0.18-0.2-0.72-0.45-0.96c-1.52-1.46-3.45-2.19-5.37-2.94c-0.88-0.34-2.12-0.48-2.51-1.12c-0.43-0.7-0.07-1.89-0.06-2.87
		c0-0.03,0-0.06,0-0.09c-0.04-0.5,0.2-0.69,0.68-0.65c0.79,0.07,1.57,0.12,2.36,0.21c1.09,0.13,1.7-0.15,1.68-0.86
		c-0.04-0.95-0.86-0.77-1.43-0.83c-0.99-0.1-1.99-0.12-3.08-0.17c0.24-1.26,0.1-2.34-0.98-3.09c-0.28-0.19-0.52-0.43-0.78-0.65
		c-0.28,0.35-0.7,0.66-0.81,1.06c-0.2,0.69-0.24,1.43-0.29,2.16c-0.04,0.56-0.21,0.85-0.84,0.88c-1.1,0.04-2.22,0.08-3.31,0.27
		c-0.91,0.15-1.8,0.51-2.91,0.84c2.36,1.36,4.6,0.36,6.8,0.57c-0.05,0.78-0.11,1.47-0.12,2.16c-0.02,1.22,0.1,2.49-1.45,2.95
		c-2.38,2.78-4.77,5.55-7.14,8.34c-0.13,0.16-0.18,0.57-0.07,0.73c0.48,0.74,1.64,1.01,2.33,0.45c0.69-0.57,1.25-1.32,1.82-2.02
		c1.19-1.45,2.36-2.92,3.68-4.57c0,0.65-0.01,1.04,0,1.44c0.06,1.44-0.56,2.96,0.47,4.31c0.12,0.16,0,0.49,0,0.74
		c0.02,1.01,0,2.02,0.08,3.03c0.07,0.85,1.09,1.72,1.8,1.65c0.89-0.09,1.28-0.58,1.12-1.83c-0.24-1.88-0.09-3.75-0.47-5.67
		c-0.41-2.06,0.27-4.34,0.51-6.84C111.08,17.23,112.86,18.09,114.6,19.03z"/>
	<path class="st0" d="M102.61,34.39c0.49,0.12,0.94,0.52,1.42,0.53c1.39,0.04,2.78-0.03,4.16-0.14c0.25-0.02,0.59-0.47,0.64-0.76
		c0.04-0.19-0.32-0.55-0.58-0.68c-0.29-0.15-0.67-0.14-1.02-0.18c-1.56-0.18-3.12-0.35-4.73-0.53c0.04-0.34,0.18-0.65,0.1-0.88
		c-0.17-0.47-0.36-1.05-0.73-1.3c-0.22-0.15-0.88,0.14-1.21,0.4c-0.35,0.28-0.51,0.8-0.83,1.13c-0.25,0.26-0.62,0.55-0.94,0.56
		c-1.52,0.05-3.04-0.06-4.55,0.01c-0.94,0.05-1.86,0.32-2.79,0.49c2.21,2.09,4.84,1.02,7.35,1.27c-0.56,1.77-1.11,3.47-1.66,5.18
		c-0.04,0.13-0.2,0.23-0.32,0.34c-1.44,1.24-2.87,2.47-4.32,3.7c-1.29,1.1-2.59,2.18-3.89,3.28c1.38,1.26,1.96,1.31,3.26,0.26
		c1.37-1.11,2.71-2.25,4.13-3.43c-0.15,1.51-0.32,2.91-0.41,4.32c-0.02,0.28,0.15,0.66,0.36,0.85c0.49,0.45,1.04,0.83,1.79,0.5
		c0.77-0.34,0.88-0.96,0.92-1.7c0.14-2.3,0.56-4.56,1.41-6.85c0.53,0.5,0.97,0.94,1.45,1.34c1.6,1.33,3.22,2.64,4.83,3.95
		c0.58,0.47,1.21,0.37,1.75-0.02c0.41-0.3,0.55-0.8-0.01-1.06c-0.79-0.37-0.89-0.98-0.86-1.71c0.01-0.17-0.1-0.35-0.15-0.52
		c-0.06,0.01-0.11,0.01-0.17,0.02c-0.08,0.36-0.15,0.71-0.27,1.26c-1.06-1.04-2.04-1.96-2.96-2.94c-0.86-0.92-1.63-1.93-3.14-1.99
		c0.45-1.51,0.86-2.93,1.33-4.33C102.03,34.56,102.42,34.35,102.61,34.39z"/>
	<path class="st0" d="M125.3,42.92c-0.24,0.03-0.6,0.18-0.74,0.07c-1.53-1.34-3.02-2.73-4.41-3.99c0.29-0.53,0.65-0.92,0.72-1.36
		c0.11-0.72,0.03-1.48,0.03-2.38c1.49,0.13,2.79,0.31,4.1,0.31c0.47,0,0.95-0.41,1.42-0.63c-0.36-0.27-0.69-0.7-1.09-0.78
		c-1.2-0.25-2.43-0.37-3.66-0.51c-0.5-0.06-0.78-0.2-0.86-0.77c-0.11-0.74-0.34-1.47-0.6-2.16c-0.11-0.28-0.46-0.47-0.7-0.7
		c-0.21,0.24-0.53,0.45-0.62,0.72c-0.23,0.72-0.33,1.48-0.52,2.21c-0.06,0.23-0.28,0.6-0.43,0.61c-1.4,0.04-2.81,0.01-4.21,0.02
		c-0.19,0-0.37,0.08-0.56,0.12c0.07,0.15,0.09,0.4,0.2,0.44c0.8,0.32,1.59,0.7,2.43,0.88c0.66,0.14,1.38,0.03,2.16,0.03
		c-0.34,1.81-0.87,3.22-2.61,4.11c-2.27,1.16-3.94,3.12-5.61,5.06c0.32,0.37,0.55,0.71,0.85,0.98c0.54,0.47,1.28,0.28,2-0.44
		c1.1-1.1,2.21-2.21,3.31-3.31c0.08,0.05,0.16,0.1,0.24,0.15c-0.21,1.52-0.35,3.05-0.67,4.55c-0.19,0.88,0.21,1.41,0.72,1.91
		c0.68,0.67,1.96,0.2,2.12-0.75c0.17-0.96,0.29-1.94,0.45-2.9c0.19-1.13,0.4-2.25,0.6-3.37c0.15-0.08,0.3-0.16,0.45-0.24
		c0.36,0.48,0.63,1.06,1.08,1.44c1.29,1.06,2.62,2.08,3.99,3.03c0.26,0.18,0.81,0,1.21-0.1c0.09-0.02,0.17-0.48,0.09-0.65
		C125.93,43.94,125.59,43.42,125.3,42.92z"/>
</g>
<g>
	<path class="st0" d="M152.77,22.6c-0.79-0.24-1.65-0.28-2.48-0.3c-1.73-0.04-3.47-0.01-5.27-0.01c0.6-1.81,1.15-3.3,1.57-4.84
		c0.22-0.79,0.45-1.18,1.39-1.01c0.91,0.17,1.61-0.26,1.91-1.22c0.15-0.47,0.32-0.95,0.59-1.36c0.8-1.25-0.33-1.58-0.98-2.1
		c-0.75-0.6-1.34-0.13-1.69,0.5c-0.55,0.97-0.96,2.02-1.43,3.02c-1.18-1.15-1.46-1.11-2.24,0.53c-0.8,1.69-1.57,3.39-2.26,5.12
		c-0.3,0.76-0.67,1.16-1.51,0.96c-1.55-0.37-2.91,0.35-4.32,0.77c-0.26,0.08-0.45,0.38-0.81,0.69c1.98,0.31,3.7,0.58,5.51,0.86
		c-0.21,1.56,0.08,3.31-2.14,3.56c-0.2,0.02-0.39,0.24-0.56,0.38c-1.88,1.48-3.75,2.99-5.64,4.45c-0.64,0.49-1.34,0.89-2.04,1.35
		c1.34,1.61,2.58,1.85,4.11,0.87c0.61-0.39,1.17-0.85,1.72-1.3c1.11-0.9,2.21-1.82,3.31-2.74c0.09,0.05,0.19,0.1,0.28,0.15
		c-0.38,2.19-0.75,4.38-1.15,6.57c-0.16,0.89,0.62,2.34,1.44,2.55c0.85,0.21,1.93-0.57,2.2-1.59c0.07-0.26,0.09-0.52,0.13-0.79
		c0.32-1.98,0.64-3.96,0.98-6.12c0.42,0.3,0.73,0.48,1,0.72c1.44,1.28,2.89,2.55,4.28,3.89c0.61,0.59,1.16,0.83,1.88,0.27
		c0.69-0.54,0.56-1.1,0.18-1.8c-0.65-1.21-1.53-2.13-2.7-2.86c-1.2-0.74-2.33-1.58-3.46-2.42c-0.3-0.23-0.7-0.64-0.68-0.94
		c0.09-1.39,0.32-2.76,0.51-4.27c2.43,0.11,4.74,0.21,7.06,0.33c0.38,0.02,0.82,0.25,1.12,0.13c0.47-0.2,0.84-0.63,1.26-0.96
		C153.5,23.29,153.2,22.73,152.77,22.6z"/>
	<path class="st0" d="M167.58,30.96c-2.3-0.02-4.6,0.34-6.9,0.51c-0.49,0.03-1.01,0-1.48-0.14c-0.87-0.26-1.56-0.09-1.84,0.78
		c-1.03,3.18-2.08,6.37-2.96,9.59c-0.36,1.32-0.92,2.85,0.4,4.02c0.4,0.35,1.09,0.69,1.53,0.57c0.49-0.13,1.06-0.71,1.23-1.22
		c0.39-1.18,0.59-2.43,0.83-3.67c0.12-0.64,0.43-0.75,1.04-0.64c1.76,0.32,3.53,0.56,5.3,0.85c0.36,0.06,0.7,0.19,1.12,0.31
		c-0.2,0.88-0.36,1.66-0.55,2.43c-0.35,1.38-0.59,1.51-1.98,1.27c-0.3-0.05-0.63,0.06-0.94,0.09c-0.03,0.12-0.05,0.24-0.08,0.36
		c0.5,0.3,0.97,0.66,1.5,0.89c0.59,0.25,1.26,0.32,1.84,0.59c1.55,0.73,2.2,0.45,2.68-1.24c0.67-2.38,1.35-4.76,1.99-7.15
		c0.3-1.14,0.33-2.39,0.83-3.43c0.39-0.82,0.31-1.3,0.14-2.17C170.83,31.34,169.24,30.98,167.58,30.96z M167.34,33.01
		c0,0.06,0.01,0.12,0.01,0.19c-1.61,0-3.22,0-4.83,0c0-0.06-0.01-0.12-0.01-0.19C164.12,33.01,165.73,33.01,167.34,33.01z
		 M166.57,39.29c-0.04,0.15-0.42,0.34-0.61,0.31c-2.25-0.33-4.5-0.7-6.91-1.09c0.36-1.19,0.68-2.27,0.98-3.25c2.49,0,4.87,0,7.52,0
		C167.21,36.68,166.92,37.99,166.57,39.29z"/>
	<path class="st0" d="M175.28,26.31c-0.81-0.28-1.67-0.6-2.51-0.59c-2.92,0.01-5.84,0.18-8.75,0.23c-0.59,0.01-1.19-0.18-1.89-0.29
		c0.31-1.01,0.61-1.91,0.86-2.82c0.17-0.62,0.51-0.76,1.1-0.6c1.03,0.27,2.07,0.52,3.11,0.73c0.82,0.16,1.58-0.01,1.78-0.96
		c0.21-1.01-0.58-1.18-1.31-1.34c-1.13-0.25-2.27-0.51-3.36-0.75c0.03-1.41,0.52-2.13,1.95-1.93c0.47,0.07,1.05-0.02,1.44-0.26
		c0.38-0.23,0.59-0.75,0.87-1.14c-0.35-0.21-0.68-0.54-1.05-0.61c-0.73-0.13-1.5-0.12-2.39-0.18c0.09-0.58,0.17-1.13,0.27-1.67
		c0.37-2.11,0.1-2.49-1.92-3.15c-0.97-0.32-1.33,0.03-1.47,0.93c-0.17,1.08-0.4,2.15-0.58,3.1c-1.29,0-2.44,0-3.58,0
		c-0.3,0-0.61,0-0.9,0.08c-0.37,0.1-0.72,0.28-1.07,0.42c0.25,0.28,0.46,0.7,0.77,0.81c1.38,0.49,2.79,0.9,4.3,1.37
		c-0.11,0.33-0.24,0.74-0.36,1.13c-1.76-0.27-4.38,0.57-4.62,1.39c1.17,0.4,2.34,0.79,3.56,1.2c-0.27,0.92-0.49,1.71-0.68,2.35
		c-1.38,0.14-2.54,0.24-3.7,0.39c-0.29,0.04-0.55,0.24-0.83,0.37c0.19,0.2,0.35,0.44,0.57,0.58c1.34,0.84,2.75,1.52,3.44,3.16
		c0.47,1.11,1.66,1.05,2.5,0.13c0.28-0.3,0.83-0.6,1.18-0.53c3.99,0.74,7.98,0.09,11.97,0.06c0.49,0,1.03-0.39,1.44-0.73
		C175.55,27.12,175.42,26.36,175.28,26.31z"/>
	<path class="st0" d="M134.23,12.66c-0.03,0.03,0.12,0.32,0.23,0.46c0.59,0.76,1.19,1.51,1.81,2.26c0.89,1.08,1.69,2.26,2.73,3.16
		c0.41,0.35,1.48,0.26,2.08-0.01c0.71-0.32,0.4-1.08,0.12-1.71c-0.29-0.64-0.51-1.31-0.77-1.97c-0.6-0.5-1.25-1.06-1.45-1.75
		c-0.73-2.51-2.72-2.49-4.85-2.63C134.24,11.3,135.03,11.96,134.23,12.66z"/>
</g>
<g>
	<path class="st0" d="M211.74,28.67c0-1.2-0.03-2.42,0.01-3.64c0.03-0.84-0.28-1.41-1.09-1.64c-1.39-0.39-2.78-0.74-4.16-1.15
		c-0.3-0.09-0.73-0.26-0.88-0.45c0.14-1.02,0.3-2.24,0.3-2.24c-0.04-0.45-0.21-0.8-0.21-0.8l0.01,0c-0.4-0.95-1.28-1.6-2.39-2.34
		c-0.15,0.58-0.32,1.04-0.39,1.52c-0.08,0.59-0.13,0.95-0.26,1.17l0.01,0.01c0,0-0.16,0.97-0.4,2.47c-0.22,0.29-0.64,0.28-1.59,0.24
		c0.12-0.4-1-0.81-1.35-0.82c-1.12-0.04-2.24,0.03-3.35,0.11c-0.32,0.02-0.64,0.2-0.94,0.34c-1.27,0.62-1.51,0.4-1.27,2.01
		c0.03,0.21-0.06,0.45-0.12,0.67c-1.36,4.73-1.85,9.55-1.73,14.46c0.02,0.61-0.4,1.23-0.61,1.84c-0.08,0.23-0.25,0.51-0.18,0.69
		c0.25,0.66,3.18,1.74,3.73,1.3c1.35-1.08,2.88-0.66,4.35-0.72l1.9-0.22c0,0,0,0,0,0c0.46,0.28,1.22,0.44,1.74,0.32
		c0.25-0.06,0.51-0.31,0.69-0.6l0.84-0.1c1.26-0.21,2.57-0.97,3.8,0.1c0.71,0.61,1.46,0.79,2.25,0.15c0.71-0.58,1.62-2.65,1.41-3.2
		c-0.03-0.07-0.1-0.12-0.12-0.19c-0.09-0.31-0.24-0.63-0.23-0.95c0.04-1.67,0.11-3.35,0.19-5.02c0.01-0.24,0.09-0.54,0.26-0.69
		C213.39,30.08,213.37,29.63,211.74,28.67z M197.86,24.06c1.31,0,2.57,0,4.03,0c-0.16,1.04-0.33,2.17-0.5,3.34
		c-0.1,0.59-0.2,1.18-0.32,1.76c-0.05,0.27-0.54,0.62-0.85,0.63c-1.17,0.07-2.35,0.03-3.68,0.03
		C197,27.86,197.43,25.96,197.86,24.06z M197.85,39.27c-0.6-0.03-1.2-0.01-1.85-0.01c0-2.08-0.02-4.24,0.03-6.4
		c0-0.2,0.4-0.55,0.63-0.56c1.27-0.05,2.54-0.03,4.07-0.03c-0.21,1.74-0.37,3.31-0.43,4.47c0.01,0.07,0.01,0.15,0,0.25
		c0,0.03-0.01,0.06-0.01,0.1c-0.01,0.14-0.01,0.28-0.01,0.4l-0.03,0c-0.02,0.33-0.04,0.67-0.09,0.99
		C199.94,39.4,199.52,39.37,197.85,39.27z M207.46,37.83c-0.01,0.17-0.32,0.43-0.53,0.47c-0.74,0.14-1.98,0.29-2.85,0.4
		c0.09-0.7,0.17-1.4,0.27-2.09c0.02-0.14,0.06-0.33,0.12-0.49c0.1-0.61,0.11-2.25,0.14-4.18c1.09-0.07,2.04-0.14,3.21-0.22
		C207.71,33.85,207.61,35.84,207.46,37.83z M207.86,28.07c-0.01,1.48-0.16,1.52-3.19,1.3c0.23-1.68,0.45-3.27,0.67-4.85
		C208.53,24.79,207.87,24.59,207.86,28.07z"/>
	<path class="st0" d="M181.43,17.64c-0.31-0.07-0.69,0.14-1.03,0.23c-0.03,0.13-0.07,0.25-0.1,0.38c0.52,0.47,0.97,1.11,1.58,1.37
		c2.06,0.9,3.89,2.12,5.56,3.61c0.63,0.56,1.41,0.56,1.97,0.01c0.63-0.63,0.08-1.22-0.35-1.78
		C187.13,18.93,184.29,18.27,181.43,17.64z"/>
	<path class="st0" d="M183.54,25.22c-1.05-0.8-3.16-0.5-4.16,0.34c2,1.53,4.01,3.1,6.06,4.62c0.28,0.21,0.74,0.37,1.07,0.3
		c0.39-0.08,0.85-0.36,1.04-0.69c0.16-0.28,0.13-0.91-0.08-1.11C186.19,27.48,184.91,26.28,183.54,25.22z"/>
	<path class="st0" d="M184.52,35.18c-1.65,1.43-3.36,2.81-5.1,4.25c0.99,1.18,2.64,1.39,3.66,0.5c1.06-0.92,2.11-1.88,3-2.96
		c0.29-0.36,0.26-1.27,0-1.72C185.79,34.72,185.13,34.65,184.52,35.18z"/>
</g>
</svg>
